<svg xmlns="http://www.w3.org/2000/svg" version="1.1" xmlns:xlink="http://www.w3.org/1999/xlink" width="110%" height="100" preserveAspectRatio="none">
    <g mask="url(#SvgjsMask1354)" fill="none">
        <path d="M-298.94 29.09C-96.41 29.11 104.94 74.06 509.92 74.09 914.89 74.12 1116.32 113.55 1318.77 113.56" stroke="rgba(238, 115, 86, 1)" stroke-width="2" />
        <path d="M-146.26 56.37C18.7 56.36 183.05 25.36 512.86 25.37 842.67 25.38 1005.91 107.9 1171.98 108.06" stroke="rgba(238, 115, 86, 1)" stroke-width="2" />
        <path d="M-378.1 44.68C-121.65 44.68 262.52 16.67 647.32 16.68 1032.12 16.69 1030.1 101.37 1160.03 101.66" stroke="rgba(238, 115, 86, 1)" stroke-width="2" />
        <path d="M-234.99 48.64C10.89 48.64 256.34 20.63 748.12 20.64 1239.9 20.65 1484.49 107.6 1731.23 107.68" stroke="rgba(238, 115, 86, 1)" stroke-width="2" />
        <path d="M-338.67 82.59C-183.96 82.58-29.76 50.59 279.35 50.59 588.46 50.59 742.03 114.68 897.37 114.77" stroke="rgba(238, 115, 86, 1)" stroke-width="2" />
    </g>
    <defs>
        <mask id="SvgjsMask1354">
            <rect width="2000" height="100" fill="#ffffff" />
        </mask>
    </defs>
</svg>
