<?xml version="1.0" encoding="UTF-8" standalone="no"?><!DOCTYPE svg PUBLIC "-//W3C//DTD SVG 1.1//EN" "http://www.w3.org/Graphics/SVG/1.1/DTD/svg11.dtd"><svg width="100%" height="100%" viewBox="0 0 938 625" version="1.1" xmlns="http://www.w3.org/2000/svg" xmlns:xlink="http://www.w3.org/1999/xlink" xml:space="preserve" xmlns:serif="http://www.serif.com/" style="fill-rule:evenodd;clip-rule:evenodd;stroke-linecap:round;stroke-linejoin:round;stroke-miterlimit:1.5;"><rect id="LineArt_teilen" x="0" y="0" width="937.5" height="625" style="fill:none;"/><g id="Line-Art_teilen" serif:id="Line Art_teilen"><path d="M602.527,413.279c-0.815,-46.977 17.033,-93.328 50.24,-126.705c8.982,-9.028 22.096,-24.255 36.705,-24.937c4.068,-0.19 6.831,2.915 8.087,6.305c3.149,8.503 -0.546,20.924 -3.114,28.485c-1.233,3.63 -2.854,7.161 -4.887,10.411c-2.752,4.403 -6.419,8.169 -9.392,12.425c-1.653,2.367 -5.207,8.652 -2.337,8.339c31.202,-3.402 53.704,-27.485 75.251,-47.966c6.888,-6.547 13.761,-13.112 20.7,-19.607c2.27,-2.125 4.684,-4.094 6.926,-6.249c0.871,-0.837 1.505,-1.903 2.4,-2.714c0.358,-0.324 1.399,-1.11 1.3,-0.638c-5.19,24.576 -18.475,41.751 -33.649,61.713c-4.578,6.023 -9.634,11.668 -14.487,17.473c-1.559,1.865 -3.166,3.69 -4.748,5.536c-0.867,1.013 -3.779,3.659 -2.598,3.041c30.611,-15.986 41.832,-53.971 61.881,-79.645c6.081,-7.786 13.079,-14.812 19.758,-22.091c0.739,-0.806 2.17,-3.197 2.481,-2.148c0.511,1.72 -0.901,3.487 -1.592,5.143c-7.518,18.023 -7.8,17.634 -17.909,34.607c-2.093,3.516 -4.236,7.003 -6.34,10.512c-0.162,0.271 -0.77,0.879 -0.459,0.829c4.406,-0.707 9.24,-3.879 12.759,-5.908c4.288,-2.472 8.526,-5.032 12.769,-7.581c1.132,-0.68 3.901,-2.898 3.619,-1.608c-4.799,21.917 -17.802,38.789 -30.497,56.936c-35.776,51.142 -89.415,88.529 -121.079,143.237c-148.861,257.2 -680.403,-43.066 -512.047,-322.627c39.114,-64.951 124.604,-79.706 155.254,-72.554c7.962,1.858 36.084,-18.898 35.959,-18.227c-3.61,19.436 -19.469,17.349 -9.689,15.937c8.589,-1.24 13.17,-3.262 33.612,-8.682c6.363,-1.688 -8.298,20.093 -23.985,25.426c-0,0 -14.81,8.893 -34.476,14.346c-16.247,4.505 -39.042,1.845 -48.745,13.832c-25.393,31.369 48.779,47.111 26.697,56.956c-39.006,17.391 7.081,63.429 7.081,63.429" style="fill:none;stroke:#0a1f40;stroke-width:4.69px;"/><path d="M297.59,309.87c-13.783,16.164 -54.09,20.652 -72.801,-11.048c-11.911,-20.178 -4.36,-81.172 68.623,-60.541" style="fill:none;stroke:#0a1f40;stroke-width:4.58px;"/><path d="M362.643,91.581c12.186,2.869 29.772,9.685 51.65,25.496c14.509,10.485 81.382,36.924 81.471,37.371c3.602,17.91 -32.404,34.897 -41.837,48.389c-3.737,5.343 43.831,28.698 26.197,44.624c-3.099,2.799 -7.952,5.982 -11.45,8.261c-11.461,7.469 -24.424,11.642 -37.739,14.334c-6.11,1.235 -12.298,1.958 -18.447,2.954c-0.356,0.058 -1.275,-0.118 -1.068,0.177c9.758,13.921 82.956,20.394 82.958,20.404c5.36,25.183 -3.336,43.718 -19.496,60.71" style="fill:none;stroke:#0a1f40;stroke-width:4.69px;"/></g></svg>