<?xml version="1.0" encoding="UTF-8" standalone="no"?>
<!-- Created with Inkscape (http://www.inkscape.org/) -->

<svg
   width="94.858955mm"
   height="102.52522mm"
   viewBox="0 0 94.858955 102.52522"
   version="1.1"
   id="svg4695" 
   xmlSpace="preserve"
   inkscapeVersion="1.2.2 (732a01da63, 2022-12-09)"
   sodipodiDocname="Sandbox 9.svg"
   xmlnsInkscape="http://www.inkscape.org/namespaces/inkscape"
   xmlnsSodipodi="http://sodipodi.sourceforge.net/DTD/sodipodi-0.dtd"
   xmlns="http://www.w3.org/2000/svg"
   xmlnsSvg="http://www.w3.org/2000/svg"><sodipodiNamedview
     id="namedview4697"
     pagecolor="#ffffff"
     bordercolor="#000000"
     borderopacity="0.25"
     inkscapeShowpageshadow="2"
     inkscapePageopacity="0.0"
     inkscapePagecheckerboard="0"
     inkscapeDeskcolor="#d1d1d1"
     inkscapeDocument-units="mm"
     showgrid="false"
     inkscapeZoom="1.1893044"
     inkscapeCx="105.94428"
     inkscapeCy="195.07201"
     inkscapeWindow-width="1920"
     inkscapeWindow-height="1137"
     inkscapeWindow-x="1912"
     inkscapeWindow-y="-8"
     inkscapeWindow-maximized="1"
     inkscapeCurrent-layer="layer2" /><defs
     id="defs4692" /><g
     inkscapeLabel="Ebene 1"
     inkscapeGroupmode="layer"
     id="layer1"
     transform="translate(-37.619832,-70.190814)"><path
       style="fill:#dd6e42;fill-opacity:1;stroke-width:0.15483"
       d="m 120.11604,149.4454 c -5.83456,3.74348 -9.16172,4.98133 -14.75201,5.35948 -15.965841,0.1425 -17.856942,-5.12078 -18.171633,-5.53312 -5.687971,-4.98856 -1.63228,-23.40936 -4.10388,-30.57008 -1.04522,-0.60503 -1.58364,-0.94046 -2.92647,-1.82313 -0.74492,-0.48965 -1.43418,-0.89027 -1.53169,-0.89027 -1.274352,-0.65036 -3.062375,-0.0358 -4.18355,-1.00948 -1.019253,-5.36237 -0.06709,-14.92338 0.106953,-19.633451 3.350862,-9.450726 8.835969,-15.869992 15.212776,-20.901941 3.766084,-2.690201 9.62882,-3.781886 13.784384,-4.141566 13.64541,-1.380586 23.39238,10.375926 27.76083,20.69362 1.18937,3.02342 1.24278,3.43493 1.12375,8.65823 -0.21026,9.226948 -0.25257,9.801998 -0.75282,10.232248 -1.49936,1.07593 -1.34657,-1.94522 -2.15164,-3.04037 -0.0447,-1.81722 0.20672,-7.061257 0.14785,-9.822458 -0.10409,-2.64185 -0.57711,-3.58117 -3.16106,-6.27725 -4.94651,-5.16115 -10.13919,-8.5653 -14.37299,-9.42246 -10.94371,-2.541038 -25.616682,0.844035 -31.272117,9.961719 -2.661061,4.691447 -4.917437,22.687999 -2.545066,18.856539 0.867326,0.73358 1.850424,1.43519 2.61923,2.14498 6.141304,3.78322 14.701386,4.76982 20.823513,5.02437 4.98976,0.19664 4.24648,0.0202 5.92283,1.4062 0.81105,0.67058 1.58688,1.33094 1.72407,1.46746 1.57819,1.57048 5.08256,1.66531 6.59748,0.17853 1.41264,-1.03402 2.23477,-2.99162 3.61746,-3.96379 20.12274,-9.02101 -8.65589,5.87904 2.05963,6.86595 2.02579,-0.67756 1.71792,21.85184 -1.57583,26.18004 z M 95.900177,79.663232 c 4.553853,-2.696494 13.795023,-1.57914 17.079103,-0.91517 1.86226,0.1603 3.329,-3.52447 1.91755,-4.81731 -2.38116,-2.18105 -17.350213,-1.59758 -21.040073,0.82011 -1.91766,1.2565 -1.61491,5.382006 0.54479,5.143716 0.590583,0.117483 0.794596,0.100312 1.49861,-0.231356 z m 13.419663,39.160078 c -0.57596,-0.48429 -1.46523,-1.2403 -1.97617,-1.68002 -1.6552,-1.42448 -2.04966,-1.58121 -4.25783,-1.6917 -17.569023,-0.87909 -26.730873,-6.45476 -18.192553,-11.07152 6.07239,-3.28341 23.847933,-4.14116 32.359513,-1.56149 4.0924,1.24031 5.34687,1.74782 6.85977,2.77521 4.35023,2.95419 2.88508,6.02969 -3.84058,8.06177 -2.88197,1.77991 -2.87041,1.54841 -3.86396,2.68499 -3.15916,3.6244 -4.97433,4.26019 -7.08819,2.48276 z"
       id="path5251"
       sodipodiNodetypes="ccccsccccccscccscccccssccccccsscccssssssccs" /></g><g
     inkscapeGroupmode="layer"
     id="layer2"
     inkscapeLabel="Ebene 2"
     transform="translate(-3.5116313)"><path
       d="m 89.781234,102.28203 c -1.99933,-0.58649 -3.74954,-1.56799 -5.17271,-2.900777 -0.44455,-0.416321 -0.95832,-0.676907 -1.93537,-0.981637 -2.14664,-0.66951 -19.925128,-6.010519 -23.470878,-7.051119 -1.78829,-0.52483 -3.98301,-1.19015 -4.87715,-1.47849 -2.2136,-0.71172 -4.349859,-1.34435 -6.580289,-2.03079 -1.72266,-0.53056 -8.95297,-2.53598 -8.9809,-2.49097 -5.481878,7.43755 -18.158038,2.4581 -21.985141,0.73969 -3.846049,-1.77035 -5.555339,-2.55268 -9.2898086,-4.25192 -3.8275597,-1.7416 -3.9481697,-1.80422 -3.9481697,-2.04996 -0.197785,-1.59865 0.631552,-3.87583 1.8242299,-3.36684 2.4479988,0.95892 4.7795564,1.7089 7.2333394,2.7095 4.772119,1.47133 9.740534,4.07057 14.988918,5.03573 0.78269,0.13589 1.59726,0.27718 1.81015,0.31398 2.96446,0.51241 7.354753,0.0613 9.256532,-0.95106 1.27096,-0.48704 2.57955,-1.05791 3.79293,-1.48622 0.83293,-0.29238 0.67252,-0.57118 -0.58563,-1.01781 -2.91965,-1.31022 -3.00711,0.1052 -5.661189,0.78276 -1.526073,0.37562 -1.724393,0.34347 -2.048323,-0.33204 -3.22262,-3.98228 -10.504307,-7.4117 -14.739579,-9.57223 -0.62396,-0.28847 -0.69802,-0.29544 -0.69802,-0.0657 4.613429,4.19632 9.944482,5.85839 13.433919,9.96679 0.665781,1.80071 -7.234586,-0.33444 -8.12673,-0.52083 -3.383376,-0.96876 -7.557533,-2.252 -10.958428,-3.37385 -0.51094,-0.17131 -1.85216,-0.60707 -2.98048,-0.96835 -2.4213396,-0.77529 -2.3538656,-0.58397 -0.8329397,-2.36189 4.9340447,-5.29219 5.0177197,-5.25929 7.7837287,-11.71237 3.918037,1.07633 4.332973,0.96443 0.90683,0.81613 0,0.19813 0.43949,0.33909 6.193209,1.98638 5.9491,1.78791 12.548653,2.95293 16.474682,7.10962 2.02948,2.60952 0.33173,6.03129 -0.90202,6.9556 2.14776,0.71159 4.44441,1.46039 6.41325,1.94358 12.383899,4.20467 25.054178,7.69543 37.366837,10.44327 0.47685,0 1.75848,0.56402 1.91649,0.8434 0.40659,0.71891 1.59243,1.75156 2.58391,2.25012 2.36662,2.302679 10.056319,3.394599 8.702979,-2.66909 3.404927,6.081979 -0.59562,11.167243 -6.908089,9.737363 z m 1.409669,-7.612013 c -2.104339,-0.58568 -3.732119,-2.04605 -3.732119,-3.34829 0.47839,-2.19963 4.039129,-1.57429 5.116839,-0.59493 2.97591,2.18598 1.84357,4.75289 -1.3848,3.94325 z"
       style="fill:#dd6e42;fill-opacity:1;stroke-width:0.15483"
       id="path946" /></g></svg>
